<?xml version="1.0" encoding="utf-8"?>
<!-- Generator: Adobe Illustrator 25.2.1, SVG Export Plug-In . SVG Version: 6.00 Build 0)  -->
<svg version="1.1" id="Laag_1" xmlns="http://www.w3.org/2000/svg" xmlns:xlink="http://www.w3.org/1999/xlink" x="0px" y="0px"
	 viewBox="0 0 208.4 48.3" style="enable-background:new 0 0 208.4 48.3;" xml:space="preserve">
<style type="text/css">
	.st0{display:none;}
	.st1{display:inline;fill:none;stroke:#E8E7E7;stroke-width:1.1277;stroke-miterlimit:10;}
	.st2{fill:#3B5998;}
	.st3{fill:#828282;}
</style>
<g id="Layer_2" class="st0">
	<rect x="-25.9" y="-22.2" class="st1" width="260" height="90"/>
</g>
<g id="Layer_1">
	<g>
		<g>
			<g>
				<path class="st2" d="M85,18.2c-2.1-0.2-3.9,0.4-5.4,2.3v-0.6l0,0v-10V9.8V9.1L74,9.8v26.1h5.5v-1.5c0.8,0.6,1.5,1.1,2.3,1.5
					c3.2,1.1,7.5,0.2,9-4.1c0.9-2.8,0.9-5.6,0.2-8.5C90.3,20.3,88.2,18.6,85,18.2z M85.8,29.5c-0.3,1.7-1.6,2.7-3.2,2.5
					c-0.4,0-0.8-0.1-1.1-0.3c-1.3-0.8-1.7-2-1.8-2.9l0,0c-0.1-1.2-0.2-3.8,0.4-5c0.5-0.9,1.4-1.4,2.6-1.5c1.7-0.1,2.9,0.8,3.1,2.5
					C86,26.5,86,28,85.8,29.5z"/>
				<path class="st2" d="M104.6,18.5c-1.9-0.5-3.9-0.5-5.8,0C96,19.3,94,21.1,93.4,24c-0.4,1.6-0.4,3.2-0.3,4.8
					c0.2,3.7,2.5,6.4,6.1,7.1c0.1,0,0.1,0,0.2,0l0,0l0,0c0.1,0,0.3,0.1,0.4,0.1h0.1l0,0c0.2,0,0.4,0.1,0.6,0.1
					c0.7,0.1,1.6,0.1,2.3,0l0,0h0.1c3.7-0.2,6.5-2.5,7.3-6.1c0.5-2,0.5-3.9,0-5.9C109.6,21.3,107.7,19.3,104.6,18.5z M104.9,29.2
					c0,0.1,0,0.2-0.1,0.4c-0.4,1.6-1.5,2.6-3.1,2.5c-1.7-0.1-2.9-1-3-2.8c-0.1-1.2-0.1-2.5,0-3.8c0.2-2,1.4-3,3.2-3
					c1.5,0,2.6,0.9,2.9,2.4C105.2,26.3,104.9,28.9,104.9,29.2z"/>
				<path class="st2" d="M21.4,18.4h-4v-2.7c0.3-2.5,4.4-2,4.4-2v-0.2l0,0V9.4l0,0l0,0l0,0c-0.1,0-8.2-1.9-9.8,4.2l0,0l0,0
					c-0.3,0.8-0.2,4.3-0.2,4.8H8.4v4.7H12v12.7h5.3V23.1h4.1l0.5-4.7H21.4z"/>
				<path class="st2" d="M34,20.7c-0.1-0.1-0.1-0.1-0.2-0.2l0,0l0,0c-0.1-0.1-0.1-0.1-0.1-0.1l0,0c-1.2-1.2-1.7-1.6-2.7-1.9
					c-3.8-1.1-7.4,0.9-8.5,4.7c-0.8,2.3-0.8,4.8-0.3,7c0.9,5.1,4.7,6.8,8.7,6c1.2-0.3,2.2-1,3-2.1c0,0,0.1-0.1,0.2-0.3v2.3h5.1V18.5
					h-5.3L34,20.7L34,20.7z M33.7,29.5c-0.2,1.6-1.5,2.6-3,2.6c-1.6-0.1-2.7-1-2.9-2.5c-0.4-2.2,0.1-4.8,0.1-4.9
					c0.4-1.4,1.5-2.2,3-2.2s2.7,1,2.9,2.6C33.8,26.5,33.8,28,33.7,29.5z"/>
				<path class="st2" d="M55,34.7c-0.3-0.9-0.5-1.7-0.8-2.6l-0.3-1c0,0-6.5,3.1-7.5-2.8c-0.1-1-0.1-2,0.1-2.9
					c0.3-1.8,1.3-2.8,3.1-2.9c0.6-0.1,1.2,0,1.8,0.1c0.8,0.1,1.6,0.4,2.5,0.6c0.3-1,0.7-1.9,1-2.8c0-0.2,0.1-0.3,0.1-0.4l0,0
					l0.2-0.6c0-0.1-0.1-0.2-0.3-0.2l0,0c-0.2-0.1-0.4-0.2-0.8-0.4c-0.2-0.1-0.3-0.1-0.5-0.2c-0.2,0-0.2-0.1-0.2-0.1l0,0
					c-1.7-0.5-3.4-0.6-5.2-0.4c-3.7,0.4-6.3,2.6-7,6.3c-0.4,1.9-0.4,3.9,0.1,5.8c0.7,2.8,2.4,4.8,5.2,5.6c1.9,0.6,3.8,0.6,5.6,0.3
					c0.8-0.1,1.9-0.6,2.8-0.9l0.3-0.1L55,34.7L55,34.7z"/>
				<path class="st2" d="M72.1,27.9c0-1.2,0-2.5-0.2-3.6c-0.5-3.2-2.5-5.3-5.7-5.9c-1.2-0.2-2.6-0.2-3.8-0.1c-3.4,0.3-6,2.5-6.6,5.7
					c-0.3,1.9-0.4,4-0.1,6c0.4,2.9,1.8,4.8,4.3,5.7l0,0l0,0l0,0c1.1,0.4,6.7,1.8,11.5-0.7l-0.2-0.8l0,0c-0.2-1-0.5-1.9-0.8-2.8v-0.1
					c0,0-0.1,0-0.3,0.1l0,0c-0.2,0.1-0.4,0.1-0.7,0.2h-0.1c-0.8,0.2-1.8,0.5-2.9,0.6c-1,0.1-1.9,0.1-2.9,0c-1.5-0.3-2.8-1-2.7-3h0.9
					c3,0,6.1,0,9.1,0c0.1,0,0.2,0,0.2,0l0,0h0.7V29L72.1,27.9z M67.1,25.5h-6c0-1.2,0.2-2.3,1.2-2.9c1.1-0.8,2.4-0.8,3.5-0.1
					C67.1,23,67.2,24.2,67.1,25.5z"/>
				<polygon class="st2" points="147.8,18.7 141.9,18.7 136.7,26.6 136.7,9.9 136.7,9.8 136.7,9.2 131.2,9.8 131.2,36 136.7,36 
					136.7,28 141.9,36 147.8,36 142.1,27.3 				"/>
				<path class="st2" d="M123.5,18.5c-1.9-0.5-3.9-0.5-5.8,0c-2.9,0.8-4.8,2.6-5.4,5.5c-0.4,1.6-0.4,3.2-0.3,4.8
					c0.2,3.7,2.5,6.4,6.1,7.1c0.1,0,0.1,0,0.2,0l0,0l0,0c0.1,0,0.3,0.1,0.4,0.1h0.1l0,0c0.2,0,0.4,0.1,0.6,0.1
					c0.7,0.1,1.6,0.1,2.3,0l0,0h0.1c3.7-0.2,6.5-2.5,7.3-6.1c0.5-2,0.5-3.9,0-5.9C128.5,21.3,126.6,19.3,123.5,18.5z M123.8,29.2
					c0,0.1,0,0.2-0.1,0.4c-0.4,1.6-1.5,2.6-3.1,2.5c-1.7-0.1-2.9-1-3-2.8c-0.1-1.2-0.1-2.5,0-3.8c0.2-2,1.4-3,3.2-3
					c1.5,0,2.6,0.9,2.9,2.4C124.1,26.3,123.8,28.9,123.8,29.2z"/>
			</g>
		</g>
		<g>
			<path class="st3" d="M171.5,35.5l-1.5-5.3h-8.1l-1.5,5.3h-2l6.5-21.6h2.2l6.5,21.6L171.5,35.5z M165.9,16.1l-3.7,12.5h7.3
				L165.9,16.1z"/>
			<path class="st3" d="M185,35.5v-2.3c-0.9,1.6-2.5,2.8-4.2,2.8c-3.5,0-5.5-3.3-5.5-8.2s2-8.2,5.5-8.2c1.6,0,3.2,1,4.2,2.8V14h1.6
				v21.6L185,35.5L185,35.5z M185,31.6v-7.7c-0.7-1.5-2.2-2.9-3.9-2.9c-2.8,0-4.1,3.1-4.1,6.7c0,3.6,1.2,6.7,4.1,6.7
				C182.8,34.4,184.3,33.1,185,31.6z"/>
			<path class="st3" d="M189.9,33.7l0.9-1.1c0.9,1.1,2.2,2,4,2c2,0,3.3-1.1,3.3-2.9c0-4.1-7.8-2.8-7.8-8.2c0-2.2,1.8-4,4.7-4
				c2,0,3.5,0.8,4.5,2l-0.9,1.1c-0.8-1.1-2.1-1.7-3.6-1.7c-1.9,0-3,1.1-3,2.6c0,3.8,7.8,2.7,7.8,8.2c0,2.5-1.9,4.3-4.8,4.3
				C192.8,36,191.3,35.2,189.9,33.7z"/>
		</g>
	</g>
</g>
</svg>
