<?xml version="1.0" encoding="utf-8"?>
<!-- Generator: Adobe Illustrator 21.0.0, SVG Export Plug-In . SVG Version: 6.00 Build 0)  -->
<svg version="1.1" xmlns="http://www.w3.org/2000/svg" xmlns:xlink="http://www.w3.org/1999/xlink" x="0px" y="0px"
	 viewBox="0 0 240 90" enable-background="new 0 0 240 90" xml:space="preserve">
<g id="Layer_2" display="none">
	
		<rect x="-10" y="0" display="inline" fill="none" stroke="#E8E7E7" stroke-width="1.1277" stroke-miterlimit="10" width="260" height="90"/>
</g>
<g id="Layer_1">
	<g>
		<g>
			<g>
				<path fill="#3B5998" d="M100.9,40.4c-2.1-0.2-3.9,0.4-5.4,2.3v-0.6l0,0v-10V32v-0.7L89.9,32v26.1h5.5v-1.5
					c0.8,0.6,1.5,1.1,2.3,1.5c3.2,1.1,7.5,0.2,9-4.1c0.9-2.8,0.9-5.6,0.2-8.5C106.2,42.5,104.1,40.8,100.9,40.4z M101.7,51.7
					c-0.3,1.7-1.6,2.7-3.2,2.5c-0.4,0-0.8-0.1-1.1-0.3c-1.3-0.8-1.7-2-1.8-2.9l0,0c-0.1-1.2-0.2-3.8,0.4-5c0.5-0.9,1.4-1.4,2.6-1.5
					c1.7-0.1,2.9,0.8,3.1,2.5C101.9,48.7,101.9,50.2,101.7,51.7z"/>
				<path fill="#3B5998" d="M120.5,40.7c-1.9-0.5-3.9-0.5-5.8,0c-2.8,0.8-4.8,2.6-5.4,5.5c-0.4,1.6-0.4,3.2-0.3,4.8
					c0.2,3.7,2.5,6.4,6.1,7.1c0.1,0,0.1,0,0.2,0l0,0l0,0c0.1,0,0.3,0.1,0.4,0.1h0.1l0,0c0.2,0,0.4,0.1,0.6,0.1
					c0.7,0.1,1.6,0.1,2.3,0l0,0h0.1c3.7-0.2,6.5-2.5,7.3-6.1c0.5-2,0.5-3.9,0-5.9C125.5,43.5,123.6,41.5,120.5,40.7z M120.8,51.4
					c0,0.1,0,0.2-0.1,0.4c-0.4,1.6-1.5,2.6-3.1,2.5c-1.7-0.1-2.9-1-3-2.8c-0.1-1.2-0.1-2.5,0-3.8c0.2-2,1.4-3,3.2-3
					c1.5,0,2.6,0.9,2.9,2.4C121.1,48.5,120.8,51.1,120.8,51.4z"/>
				<path fill="#3B5998" d="M37.3,40.6h-4v-2.7c0.3-2.5,4.4-2,4.4-2v-0.2l0,0v-4.1l0,0l0,0l0,0c-0.1,0-8.2-1.9-9.8,4.2l0,0l0,0
					c-0.3,0.8-0.2,4.3-0.2,4.8h-3.4v4.7h3.6V58h5.3V45.3h4.1l0.5-4.7L37.3,40.6z"/>
				<path fill="#3B5998" d="M49.9,42.9c-0.1-0.1-0.1-0.1-0.2-0.2l0,0l0,0c-0.1-0.1-0.1-0.1-0.1-0.1l0,0c-1.2-1.2-1.7-1.6-2.7-1.9
					c-3.8-1.1-7.4,0.9-8.5,4.7c-0.8,2.3-0.8,4.8-0.3,7c0.9,5.1,4.7,6.8,8.7,6c1.2-0.3,2.2-1,3-2.1c0,0,0.1-0.1,0.2-0.3v2.3h5.1V40.7
					h-5.3V42.9L49.9,42.9z M49.6,51.7c-0.2,1.6-1.5,2.6-3,2.6c-1.6-0.1-2.7-1-2.9-2.5c-0.4-2.2,0.1-4.8,0.1-4.9
					c0.4-1.4,1.5-2.2,3-2.2c1.5,0,2.7,1,2.9,2.6C49.7,48.7,49.7,50.2,49.6,51.7z"/>
				<path fill="#3B5998" d="M70.9,56.9c-0.3-0.9-0.5-1.7-0.8-2.6l-0.3-1c0,0-6.5,3.1-7.5-2.8c-0.1-1-0.1-2,0.1-2.9
					c0.3-1.8,1.3-2.8,3.1-2.9c0.6-0.1,1.2,0,1.8,0.1c0.8,0.1,1.6,0.4,2.5,0.6c0.3-1,0.7-1.9,1-2.8c0-0.2,0.1-0.3,0.1-0.4l0,0
					l0.2-0.6c0-0.1-0.1-0.2-0.3-0.2l0,0c-0.2-0.1-0.4-0.2-0.8-0.4c-0.2-0.1-0.3-0.1-0.5-0.2c-0.2,0-0.2-0.1-0.2-0.1l0,0
					c-1.7-0.5-3.4-0.6-5.2-0.4c-3.7,0.4-6.3,2.6-7,6.3c-0.4,1.9-0.4,3.9,0.1,5.8c0.7,2.8,2.4,4.8,5.2,5.6c1.9,0.6,3.8,0.6,5.6,0.3
					c0.8-0.1,1.9-0.6,2.8-0.9l0.3-0.1L70.9,56.9L70.9,56.9z"/>
				<path fill="#3B5998" d="M88,50.1c0-1.2,0-2.5-0.2-3.6c-0.5-3.2-2.5-5.3-5.7-5.9c-1.2-0.2-2.6-0.2-3.8-0.1
					c-3.4,0.3-6,2.5-6.6,5.7c-0.3,1.9-0.4,4-0.1,6c0.4,2.9,1.8,4.8,4.3,5.7l0,0l0,0l0,0c1.1,0.4,6.7,1.8,11.5-0.7l-0.2-0.8l0,0
					c-0.2-1-0.5-1.9-0.8-2.8v-0.1c0,0-0.1,0-0.3,0.1l0,0c-0.2,0.1-0.4,0.1-0.7,0.2h-0.1c-0.8,0.2-1.8,0.5-2.9,0.6
					c-1,0.1-1.9,0.1-2.9,0c-1.5-0.3-2.8-1-2.7-3h0.9c3,0,6.1,0,9.1,0c0.1,0,0.2,0,0.2,0l0,0h0.7v-0.2L88,50.1z M83,47.7h-6
					c0-1.2,0.2-2.3,1.2-2.9c1.1-0.8,2.4-0.8,3.5-0.1C83,45.2,83.1,46.4,83,47.7z"/>
				<polygon fill="#3B5998" points="163.7,40.9 157.8,40.9 152.6,48.8 152.6,32.1 152.6,32 152.6,31.4 147.1,32 147.1,58.2 
					152.6,58.2 152.6,50.2 157.8,58.2 163.7,58.2 158,49.5 				"/>
				<path fill="#3B5998" d="M139.4,40.7c-1.9-0.5-3.9-0.5-5.8,0c-2.9,0.8-4.8,2.6-5.4,5.5c-0.4,1.6-0.4,3.2-0.3,4.8
					c0.2,3.7,2.5,6.4,6.1,7.1c0.1,0,0.1,0,0.2,0l0,0l0,0c0.1,0,0.3,0.1,0.4,0.1h0.1l0,0c0.2,0,0.4,0.1,0.6,0.1
					c0.7,0.1,1.6,0.1,2.3,0l0,0h0.1c3.7-0.2,6.5-2.5,7.3-6.1c0.5-2,0.5-3.9,0-5.9C144.4,43.5,142.5,41.5,139.4,40.7z M139.7,51.4
					c0,0.1,0,0.2-0.1,0.4c-0.4,1.6-1.5,2.6-3.1,2.5c-1.7-0.1-2.9-1-3-2.8c-0.1-1.2-0.1-2.5,0-3.8c0.2-2,1.4-3,3.2-3
					c1.5,0,2.6,0.9,2.9,2.4C140,48.5,139.7,51.1,139.7,51.4z"/>
			</g>
		</g>
		<g>
			<path fill="#828282" d="M187.4,57.7l-1.5-5.3h-8.1l-1.5,5.3h-2l6.5-21.6h2.2l6.5,21.6L187.4,57.7z M181.8,38.3l-3.7,12.5h7.3
				L181.8,38.3z"/>
			<path fill="#828282" d="M200.9,57.7v-2.3c-0.9,1.6-2.5,2.8-4.2,2.8c-3.5,0-5.5-3.3-5.5-8.2s2-8.2,5.5-8.2c1.6,0,3.2,1,4.2,2.8
				v-8.4h1.6v21.6L200.9,57.7L200.9,57.7z M200.9,53.8v-7.7c-0.7-1.5-2.2-2.9-3.9-2.9c-2.8,0-4.1,3.1-4.1,6.7c0,3.6,1.2,6.7,4.1,6.7
				C198.7,56.6,200.2,55.3,200.9,53.8z"/>
			<path fill="#828282" d="M205.8,55.9l0.9-1.1c0.9,1.1,2.2,2,4,2c2,0,3.3-1.1,3.3-2.9c0-4.1-7.8-2.8-7.8-8.2c0-2.2,1.8-4,4.7-4
				c2,0,3.5,0.8,4.5,2l-0.9,1.1c-0.8-1.1-2.1-1.7-3.6-1.7c-1.9,0-3,1.1-3,2.6c0,3.8,7.8,2.7,7.8,8.2c0,2.5-1.9,4.3-4.8,4.3
				C208.7,58.2,207.2,57.4,205.8,55.9z"/>
		</g>
	</g>
</g>
</svg>
